<?xml version="1.0" standalone="no"?>
<!DOCTYPE svg PUBLIC "-//W3C//DTD SVG 20010904//EN"
 "http://www.w3.org/TR/2001/REC-SVG-20010904/DTD/svg10.dtd">
<svg version="1.0" xmlns="http://www.w3.org/2000/svg"
 width="1027.000000pt" height="1280.000000pt" viewBox="0 0 1027.000000 1280.000000"
 preserveAspectRatio="xMidYMid meet">
<metadata>
Created by potrace 1.15, written by Peter Selinger 2001-2017
</metadata>
<g transform="translate(0.000000,1280.000000) scale(0.100000,-0.100000)"
fill="#000000" stroke="none">
<path d="M572 12775 c-294 -79 -454 -211 -516 -425 -9 -30 -25 -106 -36 -169
l-21 -114 21 -1006 c11 -553 25 -1224 30 -1491 12 -579 26 -1290 40 -1980 6
-278 15 -723 20 -990 5 -267 14 -712 20 -990 6 -278 15 -727 20 -997 12 -616
27 -1329 40 -1978 6 -275 14 -714 20 -975 5 -261 12 -628 16 -815 4 -200 12
-371 19 -415 35 -206 139 -339 310 -401 l60 -22 1745 3 c960 1 2924 6 4365 10
2289 8 2628 11 2685 24 170 40 279 95 375 191 121 120 179 261 196 475 6 69
32 1041 60 2160 27 1119 54 2206 59 2415 5 209 14 565 20 790 23 909 31 1227
40 1600 123 4813 118 4491 64 4654 -48 145 -124 235 -246 296 -146 71 -49 68
-2408 95 -514 6 -1304 15 -1755 20 -1213 15 -3777 44 -4695 55 l-455 5 -93
-25z m2153 -255 c435 -5 1193 -14 1685 -20 492 -6 1257 -15 1700 -20 443 -5
1246 -14 1785 -20 1526 -17 1859 -25 1925 -45 113 -35 177 -141 187 -310 3
-49 0 -290 -6 -535 -37 -1425 -71 -2816 -71 -2889 l0 -84 -557 7 c-307 3
-1006 11 -1553 16 -547 6 -1422 15 -1945 20 -522 5 -1447 14 -2055 20 -608 6
-1188 12 -1290 13 l-185 2 0 575 0 575 330 -3 c601 -5 2326 -22 3320 -32 539
-5 1430 -14 1980 -20 550 -5 1217 -12 1483 -16 l482 -7 0 65 0 65 -592 7
c-658 7 -1940 20 -3533 36 -577 6 -1441 15 -1920 20 -478 6 -1022 10 -1208 10
l-338 0 2 1278 2 1277 -60 3 -60 3 -6 -503 c-4 -277 -7 -851 -7 -1275 l0 -773
-240 0 -239 0 -12 42 c-33 124 -123 234 -238 290 -213 106 -462 -19 -546 -272
l-17 -51 -304 3 -304 3 0 -61 0 -61 182 -6 c99 -4 237 -7 304 -7 l123 0 12
-42 c52 -195 249 -344 429 -324 83 9 188 65 249 132 52 56 111 165 111 203 0
21 2 21 247 21 l246 0 -6 -257 c-4 -141 -7 -400 -7 -576 l0 -319 -872 6 c-480
4 -905 9 -944 12 l-71 5 -7 382 c-3 210 -11 582 -16 827 -26 1238 -32 1543
-33 1860 -2 300 0 356 16 430 10 47 26 103 36 125 37 83 141 153 293 195 71
20 90 20 698 15 344 -3 981 -10 1415 -15z m-1182 -3966 l667 -6 0 -585 0 -584
-487 6 c-269 3 -686 8 -929 11 l-441 6 -6 232 c-4 127 -10 390 -13 585 l-7
353 274 -6 c151 -3 574 -9 942 -12z m2462 -24 c589 -6 1502 -15 2030 -20 528
-5 1417 -14 1975 -20 558 -5 1217 -12 1464 -16 l449 -6 -8 -307 c-4 -168 -10
-428 -14 -578 -3 -149 -8 -273 -11 -276 -3 -2 -354 0 -780 4 -719 7 -1212 12
-3865 39 -1994 20 -2909 31 -2909 33 -1 1 0 264 2 585 l3 583 297 -6 c163 -3
779 -10 1367 -15z m-2046 -1276 l254 -6 -6 -187 c-4 -102 -7 -356 -7 -563 l0
-378 -240 0 -240 0 0 33 c0 18 -7 59 -15 92 -56 212 -255 357 -450 325 -163
-27 -316 -187 -345 -361 -5 -35 -10 -68 -10 -73 0 -10 -507 -2 -518 8 -4 4
-10 175 -14 379 -3 205 -9 457 -11 561 l-5 188 676 -6 c372 -3 791 -9 931 -12z
m2526 -24 c550 -6 1403 -15 1895 -20 492 -5 1482 -15 2200 -21 718 -7 1306
-13 1308 -14 5 -4 -26 -1126 -31 -1131 -2 -2 -424 0 -938 6 -514 5 -1397 14
-1964 20 -566 6 -1446 15 -1955 20 -509 5 -1249 12 -1645 15 -396 3 -789 8
-872 11 l-153 6 0 566 0 565 578 -7 c317 -3 1027 -11 1577 -16z m-3727 -1227
l173 -6 31 -58 c37 -70 115 -147 189 -185 49 -27 63 -29 159 -29 100 0 108 2
167 34 76 41 145 108 185 178 l30 53 254 0 254 0 -2 -631 -3 -632 -485 3
c-267 2 -669 6 -895 9 l-410 6 -6 285 c-4 157 -10 441 -14 633 l-7 347 104 0
c56 0 181 -3 276 -7z m3372 -33 c575 -6 1468 -15 1985 -20 517 -5 1444 -14
2060 -20 616 -5 1248 -13 1404 -16 l283 -6 -6 -147 c-3 -80 -11 -362 -17 -626
-6 -264 -13 -482 -15 -484 -4 -4 -1064 6 -3264 29 -487 5 -1402 14 -2035 21
-632 6 -1386 14 -1675 17 l-525 7 0 118 c0 64 1 349 3 633 l2 516 378 -6 c207
-4 847 -11 1422 -16z m-1940 -1375 c3 -2 4 -294 2 -650 l-2 -646 -748 6 c-411
3 -806 8 -878 11 l-131 6 -6 306 c-4 169 -10 459 -14 646 l-6 339 889 -8 c489
-4 891 -9 894 -10z m2595 -25 c512 -5 1376 -14 1920 -20 2613 -26 3110 -32
3114 -36 5 -5 -16 -989 -25 -1172 l-6 -123 -337 6 c-185 3 -822 10 -1416 15
-594 6 -1487 15 -1985 20 -498 5 -1436 14 -2085 20 -649 6 -1285 13 -1412 16
l-233 6 0 646 0 645 768 -7 c422 -3 1186 -11 1697 -16z m-3062 -1396 l467 -6
0 -448 c0 -246 -3 -529 -7 -628 l-6 -182 -252 0 -252 0 -5 65 c-12 140 -112
281 -247 348 -59 29 -74 32 -156 32 -82 0 -97 -3 -155 -32 -130 -64 -235 -210
-247 -342 l-6 -61 -197 0 -197 0 -6 238 c-4 130 -10 416 -13 635 l-7 398 409
-5 c225 -4 619 -9 877 -12z m2502 -24 c567 -6 1444 -15 1950 -20 506 -5 1458
-14 2115 -20 657 -6 1264 -13 1348 -16 l154 -6 -6 -122 c-3 -66 -11 -348 -17
-626 -7 -278 -13 -507 -15 -508 -1 -2 -467 1 -1036 7 -1196 13 -2457 26 -4013
42 -605 6 -1390 14 -1745 17 l-645 7 -3 70 c-2 39 -1 324 3 634 l7 563 437 -6
c240 -4 900 -11 1466 -16z m-3321 -1409 c32 -62 115 -152 169 -184 162 -95
340 -66 475 77 28 30 61 75 74 100 l22 46 268 0 268 0 -2 -757 -3 -758 -755
-3 -755 -2 -52 26 c-46 22 -56 33 -84 90 l-32 65 -9 232 c-9 254 -26 1109 -22
1117 1 3 95 4 208 2 l206 -3 24 -48z m2971 19 c616 -6 1532 -15 2035 -20 503
-5 1410 -14 2015 -20 605 -5 1264 -13 1464 -16 l363 -6 -7 -327 c-11 -550 -21
-717 -44 -791 -49 -158 -148 -239 -346 -283 -62 -14 -435 -16 -3475 -22 -1873
-3 -3442 -8 -3487 -11 l-83 -5 0 759 0 760 223 -4 c122 -2 726 -9 1342 -14z"/>
</g>
</svg>
