<?xml version="1.0" standalone="no"?>
<!DOCTYPE svg PUBLIC "-//W3C//DTD SVG 20010904//EN"
 "http://www.w3.org/TR/2001/REC-SVG-20010904/DTD/svg10.dtd">
<svg version="1.0" xmlns="http://www.w3.org/2000/svg"
 width="1280.000000pt" height="848.000000pt" viewBox="0 0 1280.000000 848.000000"
 preserveAspectRatio="xMidYMid meet">
<g transform="translate(0.000000,848.000000) scale(0.100000,-0.100000)"
fill="#000000" stroke="none">
<path d="M7232 8445 c-39 -43 -47 -83 -46 -215 0 -84 5 -115 21 -152 16 -35
18 -49 10 -56 -7 -5 -73 -43 -147 -85 -283 -159 -511 -330 -744 -557 -287
-281 -499 -561 -679 -900 -175 -330 -326 -789 -372 -1135 -7 -59 -16 -77 -32
-67 -6 4 -62 93 -125 197 -292 484 -521 843 -550 861 -6 4 -32 -15 -59 -42
l-49 -49 20 -55 c14 -40 300 -973 366 -1191 2 -9 -9 -30 -26 -48 -35 -36 -50
-70 -50 -111 0 -16 -4 -32 -10 -35 -5 -3 -276 -39 -602 -80 -675 -85 -971
-125 -977 -131 -2 -2 22 -4 53 -4 54 0 1442 93 1548 104 37 4 52 1 73 -16 15
-11 23 -24 18 -29 -4 -4 -519 -100 -1143 -214 -1016 -184 -3144 -595 -3342
-646 -116 -29 -128 -27 -182 31 -55 59 -59 49 -11 -25 37 -59 49 -63 115 -45
42 11 1865 260 1908 260 26 0 32 -5 42 -36 11 -33 10 -39 -19 -80 -47 -65 -61
-106 -61 -182 0 -251 294 -382 488 -218 75 64 113 179 93 278 -23 110 -101
190 -217 223 -65 19 -98 41 -73 49 27 9 152 25 160 20 5 -2 6 -11 2 -20 -11
-29 26 -54 82 -54 58 0 95 25 95 64 0 13 6 28 13 34 9 8 408 67 569 84 21 2
32 -4 50 -31 26 -39 66 -54 120 -45 41 6 68 31 83 77 6 20 19 33 35 37 14 4
136 22 272 40 l247 34 86 -39 c48 -21 89 -45 92 -53 3 -7 -4 -26 -16 -40 -39
-49 -71 -125 -71 -172 0 -91 63 -159 187 -202 56 -19 88 -23 183 -23 136 0
181 16 255 90 67 67 90 122 90 220 0 70 -4 86 -28 128 -32 54 -87 98 -155 123
-50 18 -69 30 -61 39 3 2 101 18 218 35 215 31 241 30 241 -4 0 -6 11 -28 25
-49 18 -26 32 -70 46 -150 63 -344 135 -570 299 -931 128 -282 401 -677 634
-915 454 -463 964 -778 1551 -956 214 -65 421 -105 725 -142 l65 -8 0 -240 0
-240 -250 -7 c-1171 -32 -1810 -80 -1945 -146 l-35 -17 2 -122 c1 -67 7 -132
13 -143 26 -48 192 -103 420 -139 265 -42 693 -74 1233 -92 405 -13 1821 -7
2132 10 868 47 1284 117 1364 230 23 31 26 78 14 190 -8 77 -18 86 -145 111
-279 57 -856 93 -1858 118 l-275 7 -3 247 -2 248 22 4 c13 3 59 10 103 16 294
40 641 136 920 255 l110 47 15 -23 c34 -52 149 -156 208 -187 83 -44 136 -42
169 6 27 40 37 115 31 230 l-5 87 -121 242 c-67 134 -122 249 -122 257 0 9 21
27 48 42 354 204 713 529 964 874 333 458 532 995 587 1582 12 129 5 401 -15
593 -64 604 -308 1179 -701 1652 -104 125 -330 347 -454 446 -462 365 -984
584 -1587 664 -159 21 -569 24 -722 5 -258 -32 -475 -82 -700 -162 -80 -28
-153 -54 -162 -57 -14 -4 -40 42 -137 235 -114 228 -123 242 -183 296 -63 56
-183 126 -218 126 -10 0 -32 -16 -48 -35z m153 -725 c19 -38 35 -76 35 -84 0
-8 -60 -56 -132 -106 -73 -50 -160 -110 -193 -133 -85 -59 -424 -402 -523
-529 -45 -58 -116 -157 -157 -220 -41 -62 -84 -124 -95 -138 -27 -35 -130
-236 -180 -354 -57 -134 -122 -328 -155 -461 -14 -61 -31 -127 -36 -147 -9
-36 -14 -39 -186 -123 -97 -47 -180 -82 -184 -78 -18 19 46 317 112 520 218
677 654 1266 1249 1690 160 113 386 247 402 237 5 -3 24 -37 43 -74z m-2917
-3426 c18 -13 21 -19 11 -30 -6 -8 -19 -14 -28 -14 -24 0 -83 39 -76 50 10 16
68 12 93 -6z m1489 -42 c7 -8 16 -32 19 -51 11 -61 92 -316 133 -419 136 -338
330 -659 546 -900 227 -255 381 -390 650 -569 386 -257 843 -424 1340 -489
160 -21 562 -24 710 -5 263 33 477 80 687 151 64 22 121 40 127 40 15 0 104
-179 97 -195 -6 -17 -220 -87 -380 -125 -746 -177 -1510 -127 -2206 145 -307
120 -700 350 -917 537 -324 280 -424 387 -630 678 -165 232 -282 446 -377 693
-72 184 -163 507 -150 528 2 5 80 6 172 2 134 -4 169 -8 179 -21z m-3561 -233
c9 -16 -18 -30 -33 -17 -7 6 -10 14 -7 19 7 13 31 11 40 -2z"/>
</g>
</svg>
